<svg xmlns="http://www.w3.org/2000/svg" width="102" height="163" viewBox="0 0 102 163" fill="none" role="img" aria-label="WANG">
  <path d="M2.08997 1.87977L2.20381 107.555C2.20381 115.472 8.64049 121.909 16.5572 121.909H35.6921C41.0429 122.119 46.5513 125.131 50.9562 130.202C55.3524 125.131 60.8609 122.119 66.1853 121.909H85.548C93.4646 121.909 99.9013 115.472 99.9013 107.555L99.7875 1.87977H2.08997Z" fill="white"></path>
  <path d="M50.9474 132.453L50.387 131.769C46.1659 126.62 40.7976 123.546 35.657 123.345H16.5571C7.84354 123.345 0.758806 116.26 0.758806 107.547L0.644958 0.426039H101.232L101.346 107.547C101.346 116.26 94.2615 123.345 85.5479 123.345H66.2116C61.0973 123.546 55.729 126.62 51.5079 131.769L50.9474 132.453ZM2.08993 1.87977L2.20378 107.555C2.20378 115.472 8.64046 121.909 16.5571 121.909H35.6921C41.0428 122.119 46.5512 125.131 50.9562 130.202C55.3524 125.131 60.8608 122.119 66.1853 121.909H85.5479C93.4646 121.909 99.9013 115.472 99.9013 107.555L99.7874 1.87977H2.08993Z" fill="#17446F"></path>
  <path d="M5.46155 5.23386L5.57539 107.529C5.57539 110.682 6.91527 113.537 9.05208 115.542L96.3983 5.23386H5.46155Z" fill="#17446F"></path>
  <path d="M96.4071 5.23386L9.06079 115.542C11.0224 117.381 13.6584 118.511 16.5571 118.511H35.8234C41.0428 118.721 46.4111 121.164 50.9474 125.342C55.4838 121.173 60.8345 118.721 66.0452 118.52H66.1765H85.5391C91.5905 118.52 96.5209 113.598 96.5209 107.547L96.4071 5.23386Z" fill="#2E857D"></path>
  <path d="M56.9199 110.261L50.9386 106.014L44.9486 110.261L47.1379 103.255L41.2442 98.8679L48.5829 98.7803L50.9386 91.827L53.2856 98.7803L60.6243 98.8679L54.7394 103.255L56.9199 110.261Z" fill="white"></path>
  <path d="M50.9386 91.827L48.5829 98.7803L41.2442 98.8679L47.1379 103.255L44.9486 110.253L50.9386 106.014L56.9199 110.253L54.7394 103.255L60.6243 98.8679L53.2856 98.7803L50.9386 91.827Z" fill="white"></path>
  <path d="M81.721 45.0625H81.5808C80.4862 45.0887 79.698 45.2201 79.1813 45.4653C78.5946 45.7368 78.1041 46.1659 77.7101 46.7351C77.3247 47.2956 76.8869 48.4166 76.3614 50.168L66.1766 84.9174H56.5872L56.5609 84.8123L51.0613 66.448L45.0275 84.9174H35.7884L25.4985 49.6426C25.0431 48.0487 24.649 47.0329 24.2899 46.5512C23.9309 46.0608 23.423 45.6755 22.7924 45.4128C22.2319 45.1851 21.9254 45.0712 20.8658 45.0625H20.2615V39.23H39.3089V45.0625H39.1688C37.715 45.0712 37.2772 45.15 37.0757 45.2026C36.6992 45.3077 36.3664 45.5354 36.0949 45.8857C35.8234 46.236 35.6921 46.6301 35.6921 47.0679C35.6921 47.2956 35.7359 47.7773 36.1299 49.2923L42.4966 72.2892L48.294 56.1143L46.1484 49.1084C46.1046 49.0121 46.0346 48.8019 45.9032 48.329C45.5967 47.1905 45.1325 46.3586 44.5108 45.8682C43.9678 45.439 43.2059 45.1763 42.2601 45.0887L42.1288 45.08V39.23H60.8959V45.0625H59.6173C58.3913 45.0625 57.6381 45.2114 57.244 45.5266C56.7098 45.9557 56.4383 46.5074 56.4383 47.173C56.4383 47.6196 56.6047 48.4779 56.9463 49.7915L62.6824 72.2367L68.6111 49.8002C69.1804 47.6897 69.2504 47.173 69.2504 46.9716C69.2504 46.3586 69.0052 45.8594 68.5323 45.5266C68.0769 45.2114 67.2888 45.0625 66.1153 45.0625H64.863L64.8542 39.23H81.7122V45.0625H81.721Z" fill="white"></path>
  <path d="M48.5829 19.4208L50.9386 12.4762L53.2856 19.4208L60.6243 19.5084L54.7394 23.8959L56.9287 30.9018L50.9386 26.6544L44.9486 30.9018L47.1379 23.8959L41.2442 19.5084L48.5829 19.4208Z" fill="white"></path>
  <path d="M50.9386 12.4762L48.5829 19.4208L41.2442 19.5084L47.1379 23.8959L44.9486 30.9018L50.9386 26.6544L56.9199 30.9018L54.7394 23.8959L60.6243 19.5084L53.2856 19.4208L50.9386 12.4762Z" fill="white"></path>
  <path d="M50.9387 14.2277L52.7515 19.6047L52.8828 19.9813L53.2769 19.9901L58.9517 20.0514L54.3979 23.4405L54.0826 23.6857L54.2052 24.0623L55.8866 29.4743L51.2627 26.1991L50.9387 25.9714L50.6147 26.1991L45.982 29.4743L47.6722 24.0623L47.7948 23.6857L47.4708 23.4405L42.9169 20.0514L48.5917 19.9901L48.9946 19.9813L49.1172 19.6047L50.9387 14.2277Z" fill="#2E857D"></path>
  <path d="M50.9387 93.5872L52.7515 98.9643L52.8828 99.3408L53.2769 99.3496L58.9517 99.4109L54.3979 102.8L54.0826 103.036L54.2052 103.422L55.8866 108.834L51.2627 105.559L50.9387 105.322L50.6147 105.559L45.982 108.834L47.6722 103.422L47.786 103.036L47.4708 102.8L42.9169 99.4109L48.5917 99.3496L48.9946 99.3408L49.1172 98.9643L50.9387 93.5872Z" fill="#17446F"></path>
  <path d="M27.644 162.053H22.2319L19.377 147.725H19.3157L16.4608 162.053H10.9612L5.33893 141.254H10.751L13.6935 156.457H13.7548L16.8111 141.254H21.9079L24.9642 156.457H25.0255L27.968 141.254H33.3889L27.644 162.053Z" fill="#17446F"></path>
  <path d="M39.9657 141.254H45.4654L53.2419 162.044H47.5934L46.3061 158.322H39.0549L37.7501 162.044H32.1891L39.9657 141.254ZM40.316 154.302H45.0362L42.733 147.025H42.6717L40.316 154.302Z" fill="#17446F"></path>
  <path d="M55.1948 141.254H60.7645L67.9894 154.075H68.0419V141.254H73.1387V162.053H67.5778L60.3529 149.092H60.3004V162.053H55.1948V141.254Z" fill="#17446F"></path>
  <path d="M96.4684 162.053H92.9742L92.6502 159.784C91.2227 161.79 88.7794 162.49 86.8528 162.49C80.565 162.49 76.484 157.683 76.484 151.658C76.484 145.632 80.565 140.825 86.8528 140.825C91.1614 140.825 95.7678 143.128 96.2582 148.338H90.8374C90.6622 146.561 88.9195 145.484 86.7302 145.484C83.236 145.484 81.8961 148.575 81.8961 151.658C81.8961 154.74 83.236 157.831 86.7302 157.831C89.4099 157.831 91.2139 156.579 91.5029 154.688H87.7197V150.668H96.4596V162.053H96.4684Z" fill="#17446F"></path>
</svg>
